<?xml version="1.0" encoding="utf-8"?>
<!-- Generator: Adobe Illustrator 27.5.0, SVG Export Plug-In . SVG Version: 6.00 Build 0)  -->
<svg version="1.1" id="Capa_1" xmlns="http://www.w3.org/2000/svg" xmlns:xlink="http://www.w3.org/1999/xlink" x="0px" y="0px"
	 viewBox="0 0 297 120" style="enable-background:new 0 0 297 120;" xml:space="preserve">
<style type="text/css">
	.st0{enable-background:new    ;}
	.st1{fill:#B3C0CD;}
	.st2{clip-path:url(#SVGID_00000166651116093096799500000010894295889859188905_);}
	.st3{clip-path:url(#SVGID_00000158714549339912913990000008080654443112948152_);}
	.st4{fill:#B0C1CF;}
	.st5{clip-path:url(#SVGID_00000101066659977830013090000012532311041087305394_);}
	.st6{opacity:0.7;}
	.st7{clip-path:url(#SVGID_00000121964956506690094130000004559181045613403295_);}
	.st8{fill:#7E8B83;}
</style>
<g id="logo" transform="translate(-218 -1275)">
	<g class="st0">
		<path class="st1" d="M333.5,1380.4h5.5v1.7h-3.5v1.7h3.5v1.7h-3.5v1.8h3.5v1.7h-5.5V1380.4z"/>
		<path class="st1" d="M341.5,1384.7c0-0.6,0.1-1.2,0.3-1.7c0.2-0.5,0.5-1,0.9-1.4c0.4-0.4,0.9-0.7,1.4-0.9c0.5-0.2,1.1-0.3,1.7-0.3
			c0.6,0,1.2,0.1,1.8,0.3c0.5,0.2,1,0.5,1.4,0.9c0.4,0.4,0.7,0.9,0.9,1.4c0.2,0.5,0.3,1.1,0.3,1.7c0,0.6-0.1,1.2-0.3,1.8
			c-0.2,0.5-0.5,1-0.9,1.4c-0.4,0.4-0.9,0.7-1.4,0.9c-0.5,0.2-1.1,0.3-1.8,0.3c-0.7,0-1.3-0.1-1.8-0.3c-0.5-0.2-1-0.5-1.4-0.9
			s-0.7-0.9-0.9-1.4C341.6,1385.9,341.5,1385.3,341.5,1384.7z M348.2,1389.3c0.2,0,0.5,0,0.7-0.1s0.4-0.1,0.5-0.2
			c0.1-0.1,0.2-0.1,0.2-0.1l0.7,1.3c-0.1,0.2-0.4,0.4-0.7,0.6c-0.3,0.2-0.8,0.3-1.3,0.3c-0.3,0-0.6,0-0.8-0.1
			c-0.2-0.1-0.4-0.2-0.6-0.3c-0.2-0.1-0.4-0.2-0.6-0.3c-0.2-0.1-0.5-0.1-0.8-0.1c-0.3,0-0.5,0-0.7,0.1c-0.2,0.1-0.4,0.2-0.5,0.2
			c-0.1,0.1-0.2,0.1-0.2,0.1l-0.8-0.9c0.3-0.3,0.6-0.6,1.1-0.8c0.4-0.2,0.9-0.3,1.5-0.3c0.4,0,0.7,0,0.9,0.1
			c0.3,0.1,0.5,0.1,0.8,0.2S347.9,1389.3,348.2,1389.3z M343.5,1384.7c0,0.5,0.1,0.9,0.3,1.3s0.5,0.7,0.8,0.9s0.8,0.4,1.2,0.4
			c0.5,0,0.9-0.1,1.2-0.4c0.4-0.2,0.6-0.5,0.8-0.9c0.2-0.4,0.3-0.8,0.3-1.3c0-0.5-0.1-0.9-0.3-1.3c-0.2-0.4-0.5-0.7-0.8-0.9
			c-0.4-0.2-0.8-0.4-1.2-0.4c-0.5,0-0.9,0.1-1.2,0.4s-0.6,0.6-0.8,0.9C343.6,1383.8,343.5,1384.2,343.5,1384.7z"/>
		<path class="st1" d="M357.5,1380.4h1.9v5.3c0,0.7-0.1,1.3-0.4,1.8c-0.3,0.5-0.7,0.9-1.2,1.2c-0.5,0.3-1.1,0.4-1.8,0.4
			c-0.7,0-1.3-0.1-1.9-0.4c-0.5-0.3-0.9-0.7-1.2-1.2c-0.3-0.5-0.4-1.1-0.4-1.8v-5.3h1.9v5.2c0,0.4,0.1,0.7,0.2,1s0.3,0.5,0.5,0.6
			c0.2,0.1,0.5,0.2,0.8,0.2c0.3,0,0.6-0.1,0.8-0.2c0.2-0.1,0.4-0.3,0.5-0.6c0.1-0.3,0.2-0.6,0.2-1V1380.4z"/>
		<path class="st1" d="M362.2,1380.4h1.9v8.6h-1.9V1380.4z"/>
		<path class="st1" d="M367,1380.4h3.1c0.6,0,1,0.1,1.5,0.3c0.4,0.2,0.8,0.5,1.1,0.9c0.3,0.4,0.4,0.9,0.4,1.5c0,0.6-0.1,1.1-0.4,1.5
			s-0.6,0.7-1.1,0.9c-0.4,0.2-0.9,0.3-1.5,0.3h-1.2v3.2H367V1380.4z M368.9,1384.3h0.6c0.3,0,0.5,0,0.7-0.1c0.2-0.1,0.4-0.2,0.5-0.4
			c0.1-0.2,0.2-0.4,0.2-0.7c0-0.3-0.1-0.5-0.2-0.7c-0.1-0.2-0.3-0.3-0.5-0.4c-0.2-0.1-0.4-0.1-0.7-0.1h-0.6V1384.3z"/>
		<path class="st1" d="M375.2,1384.7c0-0.6,0.1-1.2,0.3-1.7c0.2-0.5,0.5-1,0.9-1.4c0.4-0.4,0.9-0.7,1.4-0.9c0.5-0.2,1.1-0.3,1.7-0.3
			c0.6,0,1.2,0.1,1.8,0.3c0.5,0.2,1,0.5,1.4,0.9c0.4,0.4,0.7,0.9,0.9,1.4c0.2,0.5,0.3,1.1,0.3,1.7c0,0.6-0.1,1.2-0.3,1.8
			c-0.2,0.5-0.5,1-0.9,1.4s-0.9,0.7-1.4,0.9c-0.5,0.2-1.1,0.3-1.8,0.3c-0.7,0-1.3-0.1-1.8-0.3c-0.5-0.2-1-0.5-1.4-0.9
			c-0.4-0.4-0.7-0.9-0.9-1.4C375.3,1385.9,375.2,1385.3,375.2,1384.7z M377.2,1384.7c0,0.5,0.1,0.9,0.3,1.3c0.2,0.4,0.5,0.7,0.8,0.9
			s0.8,0.4,1.2,0.4s0.9-0.1,1.2-0.4s0.6-0.5,0.8-0.9c0.2-0.4,0.3-0.8,0.3-1.3c0-0.5-0.1-0.9-0.3-1.3c-0.2-0.4-0.5-0.7-0.8-0.9
			s-0.8-0.4-1.2-0.4s-0.9,0.1-1.2,0.4s-0.6,0.6-0.8,0.9C377.3,1383.8,377.2,1384.2,377.2,1384.7z"/>
		<path class="st1" d="M391.2,1380.4h3.1c0.6,0,1,0.1,1.5,0.3c0.4,0.2,0.8,0.5,1.1,0.9c0.3,0.4,0.4,0.9,0.4,1.5
			c0,0.6-0.1,1.1-0.4,1.5s-0.6,0.7-1.1,0.9c-0.4,0.2-0.9,0.3-1.5,0.3h-1.2v3.2h-1.9V1380.4z M393.1,1384.3h0.6c0.3,0,0.5,0,0.7-0.1
			c0.2-0.1,0.4-0.2,0.5-0.4c0.1-0.2,0.2-0.4,0.2-0.7c0-0.3-0.1-0.5-0.2-0.7c-0.1-0.2-0.3-0.3-0.5-0.4c-0.2-0.1-0.4-0.1-0.7-0.1h-0.6
			V1384.3z"/>
		<path class="st1" d="M401.4,1380.4h1.9l3.4,8.6h-2.1l-0.6-1.7h-3.3l-0.6,1.7h-2.1L401.4,1380.4z M401.4,1385.6h2l-1-2.8h0
			L401.4,1385.6z"/>
		<path class="st1" d="M408.7,1380.4h3.5c0.5,0,0.9,0.1,1.3,0.3s0.7,0.5,0.9,0.9c0.2,0.4,0.3,0.9,0.3,1.4s-0.1,1-0.3,1.3
			c-0.2,0.3-0.4,0.6-0.7,0.8c-0.3,0.2-0.5,0.3-0.7,0.3l2.1,3.6H413l-1.9-3.4h-0.5v3.4h-1.9V1380.4z M410.6,1384.3h0.9
			c0.3,0,0.7-0.1,0.9-0.3s0.4-0.5,0.4-0.9c0-0.4-0.1-0.7-0.4-0.9c-0.3-0.2-0.6-0.2-0.9-0.2h-0.9V1384.3z"/>
		<path class="st1" d="M419.9,1380.4h1.9l3.4,8.6h-2.1l-0.6-1.7h-3.3l-0.6,1.7h-2.1L419.9,1380.4z M419.9,1385.6h2l-1-2.8h0
			L419.9,1385.6z"/>
		<path class="st1" d="M436,1384.2h4.4v0.5c0,0.6-0.1,1.2-0.3,1.7c-0.2,0.5-0.5,1-0.9,1.4c-0.4,0.4-0.8,0.7-1.4,0.9
			c-0.5,0.2-1.1,0.3-1.8,0.3c-0.7,0-1.3-0.1-1.8-0.3s-1-0.5-1.4-1c-0.4-0.4-0.7-0.9-0.9-1.4c-0.2-0.5-0.3-1.1-0.3-1.7
			c0-0.6,0.1-1.2,0.3-1.7c0.2-0.5,0.5-1,0.9-1.4c0.4-0.4,0.9-0.7,1.4-0.9s1.1-0.3,1.8-0.3c0.5,0,1,0.1,1.4,0.2
			c0.4,0.1,0.8,0.3,1.1,0.5c0.3,0.2,0.6,0.4,0.8,0.6c0.2,0.2,0.4,0.5,0.5,0.7l-1.8,0.9c-0.2-0.3-0.4-0.5-0.7-0.7
			c-0.3-0.2-0.7-0.3-1.2-0.3c-0.4,0-0.7,0.1-1,0.2c-0.3,0.1-0.5,0.3-0.8,0.6c-0.2,0.2-0.4,0.5-0.5,0.8c-0.1,0.3-0.2,0.7-0.2,1
			c0,0.4,0.1,0.7,0.2,1c0.1,0.3,0.3,0.6,0.5,0.8c0.2,0.2,0.5,0.4,0.8,0.6c0.3,0.1,0.6,0.2,1,0.2c0.3,0,0.6,0,0.8-0.1
			c0.3-0.1,0.5-0.2,0.7-0.3c0.2-0.1,0.3-0.3,0.4-0.5c0.1-0.2,0.2-0.4,0.2-0.7H436V1384.2z"/>
		<path class="st1" d="M447.8,1380.4h1.9v5.3c0,0.7-0.1,1.3-0.4,1.8c-0.3,0.5-0.7,0.9-1.2,1.2c-0.5,0.3-1.1,0.4-1.8,0.4
			c-0.7,0-1.3-0.1-1.9-0.4c-0.5-0.3-0.9-0.7-1.2-1.2c-0.3-0.5-0.4-1.1-0.4-1.8v-5.3h1.9v5.2c0,0.4,0.1,0.7,0.2,1
			c0.1,0.3,0.3,0.5,0.5,0.6c0.2,0.1,0.5,0.2,0.8,0.2c0.3,0,0.6-0.1,0.8-0.2c0.2-0.1,0.4-0.3,0.5-0.6s0.2-0.6,0.2-1V1380.4z"/>
		<path class="st1" d="M452.4,1380.4h5.5v1.7h-3.5v1.7h3.5v1.7h-3.5v1.8h3.5v1.7h-5.5V1380.4z"/>
		<path class="st1" d="M460.6,1380.4h3.5c0.5,0,0.9,0.1,1.3,0.3c0.4,0.2,0.7,0.5,0.9,0.9c0.2,0.4,0.3,0.9,0.3,1.4s-0.1,1-0.3,1.3
			s-0.4,0.6-0.7,0.8c-0.3,0.2-0.5,0.3-0.7,0.3l2.1,3.6h-2.2l-1.9-3.4h-0.5v3.4h-1.9V1380.4z M462.5,1384.3h0.9
			c0.3,0,0.7-0.1,0.9-0.3c0.3-0.2,0.4-0.5,0.4-0.9c0-0.4-0.1-0.7-0.4-0.9c-0.3-0.2-0.6-0.2-0.9-0.2h-0.9V1384.3z"/>
		<path class="st1" d="M469.6,1380.4h3.5c0.5,0,0.9,0.1,1.3,0.3c0.4,0.2,0.7,0.5,0.9,0.9c0.2,0.4,0.3,0.9,0.3,1.4s-0.1,1-0.3,1.3
			s-0.4,0.6-0.7,0.8c-0.3,0.2-0.5,0.3-0.7,0.3l2.1,3.6h-2.2l-1.9-3.4h-0.5v3.4h-1.9V1380.4z M471.5,1384.3h0.9
			c0.3,0,0.7-0.1,0.9-0.3s0.4-0.5,0.4-0.9c0-0.4-0.1-0.7-0.4-0.9s-0.6-0.2-0.9-0.2h-0.9V1384.3z"/>
		<path class="st1" d="M478.6,1380.4h5.5v1.7h-3.5v1.7h3.5v1.7h-3.5v1.8h3.5v1.7h-5.5V1380.4z"/>
		<path class="st1" d="M486.8,1380.4h3.5c0.5,0,0.9,0.1,1.3,0.3s0.7,0.5,0.9,0.9c0.2,0.4,0.3,0.9,0.3,1.4s-0.1,1-0.3,1.3
			c-0.2,0.3-0.4,0.6-0.7,0.8s-0.5,0.3-0.7,0.3l2.1,3.6h-2.2l-1.9-3.4h-0.5v3.4h-1.9V1380.4z M488.7,1384.3h0.9
			c0.3,0,0.7-0.1,0.9-0.3c0.3-0.2,0.4-0.5,0.4-0.9c0-0.4-0.1-0.7-0.4-0.9s-0.6-0.2-0.9-0.2h-0.9V1384.3z"/>
		<path class="st1" d="M495.1,1384.7c0-0.6,0.1-1.2,0.3-1.7c0.2-0.5,0.5-1,0.9-1.4c0.4-0.4,0.9-0.7,1.4-0.9c0.5-0.2,1.1-0.3,1.7-0.3
			c0.6,0,1.2,0.1,1.8,0.3c0.5,0.2,1,0.5,1.4,0.9c0.4,0.4,0.7,0.9,0.9,1.4c0.2,0.5,0.3,1.1,0.3,1.7c0,0.6-0.1,1.2-0.3,1.8
			c-0.2,0.5-0.5,1-0.9,1.4c-0.4,0.4-0.9,0.7-1.4,0.9c-0.5,0.2-1.1,0.3-1.8,0.3c-0.7,0-1.3-0.1-1.8-0.3c-0.5-0.2-1-0.5-1.4-0.9
			c-0.4-0.4-0.7-0.9-0.9-1.4C495.2,1385.9,495.1,1385.3,495.1,1384.7z M497.1,1384.7c0,0.5,0.1,0.9,0.3,1.3c0.2,0.4,0.5,0.7,0.8,0.9
			s0.8,0.4,1.2,0.4c0.5,0,0.9-0.1,1.2-0.4c0.4-0.2,0.6-0.5,0.8-0.9s0.3-0.8,0.3-1.3c0-0.5-0.1-0.9-0.3-1.3c-0.2-0.4-0.5-0.7-0.8-0.9
			c-0.4-0.2-0.8-0.4-1.2-0.4c-0.5,0-0.9,0.1-1.2,0.4s-0.6,0.6-0.8,0.9C497.2,1383.8,497.1,1384.2,497.1,1384.7z"/>
		<path class="st1" d="M509.4,1380.3c0.5,0,1,0.1,1.4,0.2c0.4,0.1,0.7,0.2,1,0.4c0.2,0.1,0.4,0.2,0.4,0.3l-0.9,1.6
			c-0.1-0.1-0.2-0.1-0.4-0.2c-0.2-0.1-0.4-0.2-0.6-0.3s-0.5-0.1-0.7-0.1c-0.3,0-0.6,0.1-0.8,0.2c-0.2,0.1-0.3,0.3-0.3,0.5
			c0,0.2,0.1,0.3,0.2,0.4c0.1,0.1,0.3,0.2,0.5,0.4s0.5,0.2,0.9,0.4c0.3,0.1,0.6,0.3,0.9,0.4c0.3,0.2,0.5,0.3,0.7,0.6
			s0.4,0.5,0.5,0.8c0.1,0.3,0.2,0.6,0.2,1c0,0.4-0.1,0.8-0.3,1.1s-0.4,0.6-0.7,0.8c-0.3,0.2-0.7,0.4-1,0.5c-0.4,0.1-0.8,0.2-1.2,0.2
			c-0.6,0-1.1-0.1-1.6-0.2c-0.5-0.1-0.8-0.3-1.1-0.4c-0.3-0.2-0.5-0.3-0.5-0.3l1-1.6c0.1,0,0.2,0.1,0.3,0.2c0.1,0.1,0.3,0.2,0.5,0.3
			c0.2,0.1,0.4,0.2,0.7,0.2c0.2,0.1,0.5,0.1,0.7,0.1c0.4,0,0.7-0.1,0.9-0.2c0.2-0.2,0.3-0.4,0.3-0.6c0-0.2-0.1-0.4-0.2-0.5
			c-0.1-0.1-0.3-0.3-0.6-0.4c-0.3-0.1-0.6-0.3-0.9-0.4c-0.4-0.2-0.7-0.3-1.1-0.6s-0.6-0.5-0.8-0.8c-0.2-0.3-0.3-0.7-0.3-1.2
			c0-0.5,0.1-0.9,0.4-1.3c0.3-0.4,0.6-0.6,1.1-0.8C508.5,1380.4,508.9,1380.3,509.4,1380.3z"/>
	</g>
	<g id="Grupo_104" transform="translate(218 1275)">
		<g>
			<defs>
				<rect id="SVGID_1_" width="297" height="120"/>
			</defs>
			<clipPath id="SVGID_00000098938691467771586480000016031652255780547739_">
				<use xlink:href="#SVGID_1_"  style="overflow:visible;"/>
			</clipPath>
			<g id="Grupo_103" style="clip-path:url(#SVGID_00000098938691467771586480000016031652255780547739_);">
				<g id="Grupo_97" transform="translate(0 -0.001)">
					<g>
						<defs>
							<rect id="SVGID_00000097495787687471523860000011688982432522463126_" y="0" width="297" height="120"/>
						</defs>
						<clipPath id="SVGID_00000150799383347526824610000012148188738124972171_">
							<use xlink:href="#SVGID_00000097495787687471523860000011688982432522463126_"  style="overflow:visible;"/>
						</clipPath>
						<g id="Grupo_96" style="clip-path:url(#SVGID_00000150799383347526824610000012148188738124972171_);">
							<g class="st0">
								<path class="st4" d="M15.2,4.4h3v15.1h-2.8V8.4l-5.7,6.8L3.9,8.4v11.1H1.2V4.4h3l5.5,6.6L15.2,4.4z"/>
							</g>
							<g class="st0">
								<path class="st4" d="M36,4.4c0.4,0,0.8,0.1,1.1,0.2s0.7,0.4,0.9,0.6c0.3,0.3,0.5,0.6,0.6,0.9c0.2,0.4,0.2,0.7,0.2,1.1v9.3
									c0,0.4-0.1,0.8-0.2,1.1c-0.2,0.4-0.4,0.7-0.6,0.9c-0.3,0.3-0.6,0.5-0.9,0.6c-0.4,0.2-0.7,0.2-1.1,0.2h-9.3
									c-0.4,0-0.8-0.1-1.1-0.2c-0.4-0.2-0.7-0.4-0.9-0.6c-0.3-0.3-0.5-0.6-0.6-0.9c-0.2-0.4-0.2-0.7-0.2-1.1V7.3
									c0-0.4,0.1-0.8,0.2-1.1c0.2-0.4,0.4-0.7,0.6-0.9c0.3-0.3,0.6-0.5,0.9-0.6c0.4-0.2,0.7-0.2,1.1-0.2H36z M36,16.7
									c0.1,0,0.1,0,0.1-0.1V7.3c0-0.1,0-0.1-0.1-0.1h-9.3c-0.1,0-0.1,0-0.1,0.1v9.3c0,0.1,0,0.1,0.1,0.1H36z"/>
							</g>
							<g class="st0">
								<path class="st4" d="M56.6,4.4c0.4,0,0.8,0.1,1.1,0.2s0.7,0.4,0.9,0.6c0.3,0.3,0.5,0.6,0.6,0.9c0.2,0.4,0.2,0.7,0.2,1.1v9.3
									c0,0.4-0.1,0.8-0.2,1.1c-0.2,0.4-0.4,0.7-0.6,0.9c-0.3,0.3-0.6,0.5-0.9,0.6c-0.4,0.2-0.7,0.2-1.1,0.2H44.4V4.4H56.6z
									 M56.7,7.3c0-0.1,0-0.1-0.1-0.1h-9.3c-0.1,0-0.1,0-0.1,0.1v9.3c0,0.1,0,0.1,0.1,0.1h9.3c0.1,0,0.1,0,0.1-0.1V7.3z"/>
							</g>
							<g class="st0">
								<path class="st4" d="M77.1,4.4c0.4,0,0.8,0.1,1.1,0.2c0.4,0.2,0.7,0.4,0.9,0.6s0.5,0.6,0.6,0.9c0.2,0.4,0.2,0.7,0.2,1.1v9.3
									c0,0.4-0.1,0.8-0.2,1.1c-0.2,0.4-0.4,0.7-0.6,0.9c-0.3,0.3-0.6,0.5-0.9,0.6c-0.4,0.2-0.7,0.2-1.1,0.2h-9.3
									c-0.4,0-0.8-0.1-1.1-0.2c-0.4-0.2-0.7-0.4-0.9-0.6c-0.3-0.3-0.5-0.6-0.6-0.9c-0.2-0.4-0.2-0.7-0.2-1.1V7.3
									c0-0.4,0.1-0.8,0.2-1.1c0.2-0.4,0.4-0.7,0.6-0.9c0.3-0.3,0.6-0.5,0.9-0.6s0.7-0.2,1.1-0.2H77.1z M77.1,16.7
									c0.1,0,0.1,0,0.1-0.1V7.3c0-0.1,0-0.1-0.1-0.1h-9.3c-0.1,0-0.1,0-0.1,0.1v9.3c0,0.1,0,0.1,0.1,0.1H77.1z"/>
							</g>
						</g>
					</g>
				</g>
				<path id="Trazado_88" class="st4" d="M224.3,54.5v32.6h14.1V42.9L224.3,54.5z"/>
				<g id="Grupo_102" transform="translate(0 -0.001)">
					<g>
						<defs>
							<rect id="SVGID_00000068673499382259386080000011949287463203892886_" y="0" width="297" height="120"/>
						</defs>
						<clipPath id="SVGID_00000139981249251741657140000012619165751991140276_">
							<use xlink:href="#SVGID_00000068673499382259386080000011949287463203892886_"  style="overflow:visible;"/>
						</clipPath>
						<g id="Grupo_101" style="clip-path:url(#SVGID_00000139981249251741657140000012619165751991140276_);">
							<path id="Trazado_89" class="st4" d="M280.8,31.5h-17l-16.2,55.6H262l2.6-11.8h14.9l2.6,11.8H297L280.8,31.5z M267.1,63.9
								l0.9-3.8c1.3-5.3,2.6-12,3.8-17.6h0.3c1.3,5.6,2.6,12.3,3.9,17.6l0.9,3.8H267.1z"/>
							<path id="Trazado_90" class="st4" d="M184.4,87.1h13.8V75.8L184.4,87.1z"/>
							<path id="Trazado_91" class="st4" d="M87.5,52.6h-15v-8.7h20.3V31.5H58.4v44.8L87.5,52.6z"/>
							<path id="Trazado_92" class="st4" d="M43.3,70.7c0-7.4-4.1-11.5-9.2-13v-0.3c4.1-1.7,6.7-7.2,6.7-12c0-10.9-9-13.9-20.1-13.9
								H1.5v55.6h20.8C33.8,87.1,43.3,82.2,43.3,70.7 M15.6,42.8h4.8c4.6,0,6.7,1.4,6.7,4.8s-2.1,5.6-6.7,5.6h-4.8V42.8z M15.6,75.8
								V64h5.7c5.6,0,8.2,1.5,8.2,5.6c0,4.1-2.6,6.2-8.2,6.2L15.6,75.8z"/>
							<g id="Grupo_100" transform="translate(66.452 30.514)" class="st6">
								<g id="Grupo_99">
									<g>
										<defs>
											<rect id="SVGID_00000049185032937753066380000007832080546735232648_" x="0" y="0" width="162.6" height="57.6"/>
										</defs>
										<clipPath id="SVGID_00000114783953526845031490000016212773932904780718_">
											<use xlink:href="#SVGID_00000049185032937753066380000007832080546735232648_"  style="overflow:visible;"/>
										</clipPath>
										<g id="Grupo_98" style="clip-path:url(#SVGID_00000114783953526845031490000016212773932904780718_);">
											<path id="Trazado_93" class="st4" d="M72.9,41c0-2.7-2.7-3.5-7.2-5.4L59,32.7c-5.7-2.4-10.7-7.4-10.7-15.5
												C48.3,7.8,56.5,0,68.1,0c6.7,0,13,2.7,17.7,7.4l-7,9.2c-3.6-2.6-6.7-4-10.6-4c-3.4,0-5.6,1.3-5.6,3.8
												c0,2.7,3,3.6,7.9,5.6l6.5,2.6c6.6,2.7,10.4,7.5,10.4,15.2c0,9.4-7.5,17.8-20.8,17.8c-7.5-0.1-14.7-2.9-20.1-8l8-10.1
												c3.8,3.2,8.5,5.4,12.4,5.4C71.1,45,72.9,43.5,72.9,41 M35.2,44.3H14.1v-9.9h17.4V22.1h-2.4L0,45.9v10.7h35.2V44.3z
												 M162.6,1h-14.1V24l14.1-11.5L162.6,1z M122.5,13.3h14.1V1H94.3v12.3h14.1v43.3h0.3l13.8-11.3L122.5,13.3z"/>
										</g>
									</g>
								</g>
							</g>
							<path id="Trazado_94" class="st4" d="M2.7,119.7L142.3,1c1.1-0.9,2.7-0.8,3.6,0.3c0,0,0.1,0.1,0.1,0.1c0.9,1.2,0.7,3-0.5,3.9
								L2.7,119.7z"/>
							<g>
								<path id="Trazado_95_00000091737430295369405750000001451082315803916711_" class="st4" d="M2.7,119.7L142.3,1
									c1.1-0.9,2.7-0.8,3.6,0.3c0,0,0.1,0.1,0.1,0.1c0.9,1.2,0.7,3-0.5,3.9L2.7,119.7z"/>
								<path class="st8" d="M2.8,119.9l-0.3-0.4L142.1,0.8c1.2-1,3-0.8,4,0.4c0,0,0.1,0.1,0.1,0.1c1,1.3,0.8,3.2-0.5,4.3L2.8,119.9
									z M143.9,0.7c-0.5,0-1.1,0.2-1.5,0.5L15.7,108.9L145.3,5.2c1.1-0.9,1.3-2.4,0.5-3.6c0,0-0.1-0.1-0.1-0.1
									c-0.4-0.5-1-0.8-1.6-0.8C144.1,0.7,144,0.7,143.9,0.7z"/>
							</g>
							<path id="Trazado_96" class="st4" d="M145.3,119.7L284.9,1c1.1-0.9,2.7-0.8,3.6,0.3c0,0,0.1,0.1,0.1,0.1
								c0.9,1.2,0.7,3-0.5,3.9L145.3,119.7z"/>
							<g>
								<path id="Trazado_97_00000106131995652892251740000005023871345418229169_" class="st4" d="M145.3,119.7L284.9,1
									c1.1-0.9,2.7-0.8,3.6,0.3c0,0,0.1,0.1,0.1,0.1c0.9,1.2,0.7,3-0.5,3.9L145.3,119.7z"/>
								<path class="st8" d="M145.5,119.9l-0.3-0.4L284.7,0.8c0.6-0.5,1.3-0.7,2.1-0.6c0.7,0.1,1.4,0.4,1.9,1c0,0,0.1,0.1,0.1,0.1
									c1,1.3,0.8,3.2-0.5,4.3L145.5,119.9z M286.5,0.7c-0.5,0-1.1,0.2-1.5,0.5L158.4,108.9L288,5.2c1.1-0.9,1.3-2.4,0.5-3.6
									c0,0-0.1-0.1-0.1-0.1c-0.4-0.5-1-0.8-1.6-0.8C286.7,0.7,286.6,0.7,286.5,0.7z"/>
							</g>
							<path id="Trazado_98" class="st4" d="M71.8,119.7L211.4,1c1.1-0.9,2.7-0.8,3.6,0.3c0,0,0.1,0.1,0.1,0.1
								c0.9,1.2,0.7,3-0.5,3.9L71.8,119.7z"/>
							<g>
								<path id="Trazado_99_00000066486071911306711150000015385411849519526078_" class="st4" d="M71.8,119.7L211.4,1
									c1.1-0.9,2.7-0.8,3.6,0.3c0,0,0.1,0.1,0.1,0.1c0.9,1.2,0.7,3-0.5,3.9L71.8,119.7z"/>
								<path class="st8" d="M72,119.9l-0.3-0.4L211.2,0.8c0.6-0.5,1.3-0.7,2.1-0.6c0.7,0.1,1.4,0.4,1.9,1c0,0,0.1,0.1,0.1,0.1
									c1,1.3,0.8,3.2-0.5,4.3L72,119.9z M213,0.7c-0.5,0-1.1,0.2-1.5,0.5L84.9,108.9L214.5,5.2c1.1-0.9,1.3-2.4,0.5-3.6
									c0,0-0.1-0.1-0.1-0.1c-0.4-0.5-1-0.8-1.6-0.8C213.2,0.7,213.1,0.7,213,0.7z"/>
							</g>
						</g>
					</g>
				</g>
			</g>
		</g>
	</g>
</g>
</svg>
