<svg xmlns="http://www.w3.org/2000/svg" width="106.156" height="32" viewBox="0 0 106.156 32">
  <path id="logo" d="M75.287,299.767v-1.042h.595c.345,0,.731.1.731.5,0,.442-.428.543-.812.543Zm-.658,2.059h.658V300.3h.481l.845,1.527h.8l-.984-1.6a.973.973,0,0,0,.845-.986c0-.785-.675-1.072-1.375-1.072H74.628v3.659Zm-1.471-1.814a2.743,2.743,0,1,1,2.731,2.745,2.738,2.738,0,0,1-2.731-2.745Zm-.515,0a3.257,3.257,0,1,0,3.247-3.241,3.213,3.213,0,0,0-3.247,3.241Zm-37.87,27.214h7.4V296.771h-7.4v30.455Zm-2.947-30.455H23.7l-7.055,22.008-7.18-22.008H1.2l11.526,30.455h7.355l11.738-30.455ZM5.692,327.225-6.764,296.771H-14.09L-27,327.225h8.137l2.232-5.978H-4.839l2.363,5.978ZM-6.864,315.356h-7.654L-10.65,304.9l3.786,10.453Zm71.983-10.986a7.941,7.941,0,0,0-5.6-2.308c-1.892,0-4.26.647-4.26,3.056,0,2.019,1.809,2.7,4.693,3.611,4.128,1.333,9.46,3.056,9.46,9.12,0,7.01-5.635,10.15-11.654,10.15-4.346,0-8.736-1.589-11.4-4.387l4.509-4.628a9.649,9.649,0,0,0,6.89,2.95c2.233,0,4.214-.865,4.214-3.313,0-2.323-2.325-3.1-6.324-4.4-3.868-1.246-7.783-3.177-7.783-8.679,0-6.754,6.107-9.549,11.783-9.549a15.245,15.245,0,0,1,9.98,3.739l-4.512,4.631Z" transform="translate(27 -296)" fill="#fff"/>
</svg>
